# Blender 3.1.0
# www.blender.org
mtllib ship.mtl
o Cube
v 0.250000 -0.500000 -0.250000
v 0.250000 -0.500000 0.250000
v -0.250000 -0.500000 -0.250000
v -0.250000 -0.500000 0.250000
v 0.000904 0.500000 -0.000904
v 0.250000 0.001808 -0.250000
v 0.000904 0.500000 0.000904
v 0.250000 0.001808 0.250000
v -0.000904 0.500000 -0.000904
v -0.250000 0.001808 -0.250000
v -0.000904 0.500000 0.000904
v -0.250000 0.001808 0.250000
vn -0.0000 -0.0000 0.2500
vn -0.2500 -0.0000 -0.0000
vn -0.0000 -0.5000 -0.0000
vn -0.0000 0.5000 -0.0000
vn 0.2500 -0.0000 -0.0000
vn -0.0000 0.3536 0.1768
vn 0.1768 0.3536 -0.0000
vn -0.1768 0.3536 -0.0000
vn -0.0000 0.3536 -0.1768
vn -0.0000 -0.0000 -0.2500
vt 0.375000 0.500000
vt 0.375000 0.750000
vt 0.125000 0.500000
vt 0.375000 0.250000
vt 0.375000 1.000000
vt 0.375000 0.000000
vt 0.125000 0.750000
vt 0.749548 0.624548
vt 0.625000 0.500000
vt 0.500452 0.500000
vt 0.749548 0.625452
vt 0.625000 0.750000
vt 0.500452 0.750000
vt 0.750452 0.624548
vt 0.875000 0.500000
vt 0.500452 0.250000
vt 0.750452 0.625452
vt 0.500452 1.000000
vt 0.500452 0.000000
vt 0.875000 0.750000
s 0
usemtl Material
f 2/2/1 8/13/1 12/18/1 4/5/1
f 4/6/2 12/19/2 10/16/2 3/4/2
f 3/3/3 1/1/3 2/2/3 4/7/3
f 5/8/4 9/14/4 11/17/4 7/11/4
f 1/1/5 6/10/5 8/13/5 2/2/5
f 7/11/6 11/17/6 12/20/6 8/12/6
f 5/8/7 7/11/7 8/13/7 6/10/7
f 11/17/8 9/14/8 10/15/8 12/20/8
f 9/14/9 5/8/9 6/9/9 10/15/9
f 3/4/10 10/16/10 6/10/10 1/1/10
